<svg width="24" height="24" viewBox="0 0 24 24" fill="none" xmlns="http://www.w3.org/2000/svg">
<g id="Icons\Eye Slash">
<path id="Vector" d="M4.394 6.8532L1.21556 4.19983L2.65328 3L22.7844 19.7993L21.3467 21L17.9812 18.1913C16.1926 19.138 14.1175 19.6393 11.9995 19.6364C6.51703 19.6364 1.95577 16.3441 1 11.9996C1.43814 10.024 2.62845 8.21911 4.394 6.8532ZM14.8038 15.5397L13.3152 14.2974C12.7459 14.5247 12.106 14.5991 11.4839 14.5102C10.8618 14.4213 10.2881 14.1736 9.84176 13.8011C9.39546 13.4287 9.0986 12.9499 8.99209 12.4307C8.88558 11.9115 8.97467 11.3776 9.24708 10.9024L7.75852 9.66016C7.11156 10.476 6.82234 11.4534 6.93984 12.4268C7.05733 13.4002 7.57433 14.3098 8.40327 15.0016C9.23222 15.6934 10.3222 16.1248 11.4886 16.2229C12.655 16.3209 13.8261 16.0796 14.8038 15.5397ZM7.90595 5.00764C9.17387 4.59185 10.5557 4.36275 11.9995 4.36275C17.482 4.36275 22.0432 7.65507 23 11.9996C22.6885 13.4133 21.9882 14.7473 20.9542 15.8969L17.0295 12.6216C17.0654 12.4179 17.0834 12.2106 17.0834 11.9996C17.0835 11.3899 16.9262 10.7873 16.622 10.2329C16.3179 9.67849 15.8742 9.18531 15.3211 8.78694C14.768 8.38857 14.1185 8.09437 13.4169 7.92438C12.7153 7.75439 11.9779 7.7126 11.2552 7.80187L7.90595 5.00764Z" fill="#FFFEF7"/>
</g>
</svg>
